<?xml version="1.0" encoding="utf-8"?>
<!-- Generator: Adobe Illustrator 16.0.0, SVG Export Plug-In . SVG Version: 6.00 Build 0)  -->
<!DOCTYPE svg PUBLIC "-//W3C//DTD SVG 1.1//EN" "http://www.w3.org/Graphics/SVG/1.1/DTD/svg11.dtd">
<svg version="1.1" id="图层_1" xmlns="http://www.w3.org/2000/svg" xmlns:xlink="http://www.w3.org/1999/xlink" x="0px" y="0px"
	 width="26px" height="26px" viewBox="0 0 26 26" enable-background="new 0 0 26 26" xml:space="preserve">
<g>
	<g>
		<rect fill="#E60012" fill-opacity="0" width="26" height="26"/>
		<g>
			
				<linearGradient id="SVGID_1_" gradientUnits="userSpaceOnUse" x1="8247.2129" y1="-3394.5488" x2="8271.2129" y2="-3394.5488" gradientTransform="matrix(0 1 1 0 3407.5488 -8246.2129)">
				<stop  offset="0" style="stop-color:#FF1515"/>
				<stop  offset="1" style="stop-color:#FF9494"/>
			</linearGradient>
			<circle fill="url(#SVGID_1_)" cx="13" cy="13" r="12"/>
		</g>
		<path d="M13,3.5c5.238,0,9.499,4.261,9.499,9.5S18.238,22.499,13,22.499c-5.238,0-9.5-4.261-9.5-9.499S7.762,3.5,13,3.5 M13,1
			C6.374,1,1,6.372,1,13s5.374,12,12,12c6.629,0,12-5.371,12-12C25,6.372,19.629,1,13,1L13,1z"/>
	</g>
	<g>
		<polyline fill="#262626" points="6.641,18.04 11.441,12.52 15.402,19.359 19.361,8.439 15.282,13.6 11.083,6.64 6.761,17.921 
			6.641,18.04 		"/>
		<path fill="#262626" d="M15.402,19.858c-0.178,0-0.343-0.093-0.433-0.25l-3.61-6.233l-4.156,4.78
			c-0.037,0.067-0.087,0.125-0.146,0.168l-0.039,0.045c-0.181,0.208-0.497,0.229-0.705,0.05c-0.208-0.183-0.231-0.497-0.049-0.706
			l0.077-0.086l4.275-11.164c0.068-0.179,0.232-0.303,0.423-0.319c0.198-0.015,0.373,0.077,0.472,0.239l3.827,6.343L18.97,8.13
			c0.152-0.192,0.423-0.246,0.636-0.126c0.215,0.12,0.311,0.376,0.227,0.607l-3.959,10.92c-0.066,0.183-0.232,0.31-0.426,0.327
			C15.432,19.858,15.417,19.858,15.402,19.858z M11.441,12.02c0.017,0,0.032,0,0.048,0.001c0.16,0.015,0.304,0.107,0.385,0.248
			l3.424,5.912l2.542-7.011l-2.166,2.741c-0.103,0.129-0.264,0.197-0.423,0.188c-0.165-0.011-0.312-0.1-0.397-0.241l-3.671-6.083
			l-2.93,7.649l2.811-3.233C11.159,12.082,11.298,12.02,11.441,12.02z"/>
	</g>
</g>
</svg>
