<?xml version="1.0" encoding="utf-8"?>
<!-- Generator: Adobe Illustrator 16.0.0, SVG Export Plug-In . SVG Version: 6.00 Build 0)  -->
<!DOCTYPE svg PUBLIC "-//W3C//DTD SVG 1.1//EN" "http://www.w3.org/Graphics/SVG/1.1/DTD/svg11.dtd">
<svg version="1.1" id="图层_1" xmlns="http://www.w3.org/2000/svg" xmlns:xlink="http://www.w3.org/1999/xlink" x="0px" y="0px"
	 width="26px" height="26px" viewBox="0 0 26 26" enable-background="new 0 0 26 26" xml:space="preserve">
<g>
	<g>
		<rect fill="#E60012" fill-opacity="0" width="26" height="26"/>
		<g>
			
				<linearGradient id="SVGID_1_" gradientUnits="userSpaceOnUse" x1="8247.2129" y1="-3394.5488" x2="8271.2129" y2="-3394.5488" gradientTransform="matrix(0 1 1 0 3407.5488 -8246.2129)">
				<stop  offset="0" style="stop-color:#FF1515"/>
				<stop  offset="1" style="stop-color:#FF9494"/>
			</linearGradient>
			<circle fill="url(#SVGID_1_)" cx="13" cy="13" r="12"/>
		</g>
		<path d="M13,3.5c5.238,0,9.499,4.261,9.499,9.5S18.238,22.499,13,22.499c-5.238,0-9.5-4.261-9.5-9.499S7.762,3.5,13,3.5 M13,1
			C6.374,1,1,6.372,1,13s5.374,12,12,12c6.629,0,12-5.371,12-12C25,6.372,19.629,1,13,1L13,1z"/>
	</g>
</g>
</svg>
