<?xml version="1.0" encoding="utf-8"?>
<!-- Generator: Adobe Illustrator 16.0.0, SVG Export Plug-In . SVG Version: 6.00 Build 0)  -->
<!DOCTYPE svg PUBLIC "-//W3C//DTD SVG 1.1//EN" "http://www.w3.org/Graphics/SVG/1.1/DTD/svg11.dtd">
<svg version="1.1" id="图层_1" xmlns="http://www.w3.org/2000/svg" xmlns:xlink="http://www.w3.org/1999/xlink" x="0px" y="0px"
	 width="26px" height="26px" viewBox="0 0 26 26" enable-background="new 0 0 26 26" xml:space="preserve">
<g>
	<g>
		<rect fill="#E60012" fill-opacity="0" width="26" height="26.002"/>
		<g>
			
				<linearGradient id="SVGID_1_" gradientUnits="userSpaceOnUse" x1="7839.2178" y1="-3804.5444" x2="7863.2168" y2="-3804.5444" gradientTransform="matrix(0 1 1 0 3817.5449 -7838.2168)">
				<stop  offset="0" style="stop-color:#FF1515"/>
				<stop  offset="1" style="stop-color:#FF9494"/>
			</linearGradient>
			<circle fill="url(#SVGID_1_)" cx="13.001" cy="13" r="12"/>
		</g>
		<path d="M13.001,3.5c5.238,0,9.5,4.264,9.5,9.5c0,5.24-4.262,9.5-9.5,9.5s-9.5-4.26-9.5-9.5C3.5,7.764,7.763,3.5,13.001,3.5
			 M13.001,1.001C6.374,1.001,1,6.372,1,13.001C1,19.629,6.374,25,13.001,25C19.629,25,25,19.63,25,13.001
			C25,6.372,19.629,1.001,13.001,1.001L13.001,1.001z"/>
	</g>
	<path fill="#262626" d="M19.063,12.943c0.357-2.928-3.029-6.47-6.119-6c-2.984-0.39-6.391,3.018-6,6
		c-0.469,3.091,3.071,6.476,6,6.119C15.972,19.507,19.504,15.97,19.063,12.943"/>
</g>
</svg>
