<?xml version="1.0" encoding="utf-8"?>
<!-- Generator: Adobe Illustrator 16.0.0, SVG Export Plug-In . SVG Version: 6.00 Build 0)  -->
<!DOCTYPE svg PUBLIC "-//W3C//DTD SVG 1.1//EN" "http://www.w3.org/Graphics/SVG/1.1/DTD/svg11.dtd">
<svg version="1.1" id="图层_1" xmlns="http://www.w3.org/2000/svg" xmlns:xlink="http://www.w3.org/1999/xlink" x="0px" y="0px"
	 width="26px" height="26px" viewBox="0 0 26 26" enable-background="new 0 0 26 26" xml:space="preserve">
<g>
	<g>
		<rect opacity="0" fill="#E60012" width="26" height="26.001"/>
		<g>
			<g>
				
					<linearGradient id="SVGID_1_" gradientUnits="userSpaceOnUse" x1="6948.459" y1="3017.0449" x2="6972.459" y2="3017.0449" gradientTransform="matrix(0 1 -1 0 3030.0449 -6947.459)">
					<stop  offset="0" style="stop-color:#6EFF00"/>
					<stop  offset="1" style="stop-color:#C1FF00"/>
				</linearGradient>
				<circle fill="url(#SVGID_1_)" cx="13" cy="13" r="12"/>
			</g>
			<path d="M24,13c0,6.065-4.936,11-11,11C6.934,24,2,19.065,2,13C2,6.935,6.934,2,13,2C19.064,2,24,6.935,24,13 M25,13
				c0-6.628-5.373-12-12-12C6.371,1,1,6.372,1,13c0,6.629,5.371,12,12,12C19.627,25,25,19.629,25,13L25,13z"/>
		</g>
	</g>
	<g>
		<path fill="#262626" d="M15.402,19.859c-0.18,0-0.344-0.094-0.434-0.249l-3.61-6.234l-4.157,4.78
			c-0.037,0.067-0.087,0.125-0.146,0.168l-0.038,0.044c-0.182,0.209-0.498,0.23-0.706,0.049c-0.208-0.18-0.23-0.497-0.049-0.705
			l0.077-0.087l4.275-11.164c0.067-0.179,0.232-0.302,0.423-0.32c0.186-0.015,0.373,0.077,0.472,0.24l3.827,6.343l3.631-4.595
			c0.154-0.192,0.424-0.247,0.637-0.127c0.215,0.119,0.311,0.377,0.227,0.607l-3.959,10.919c-0.064,0.184-0.232,0.312-0.426,0.328
			C15.43,19.859,15.416,19.859,15.402,19.859z M11.441,12.02c0.016,0,0.03,0.001,0.047,0.003c0.161,0.015,0.304,0.107,0.386,0.247
			l3.423,5.913l2.541-7.012l-2.164,2.739c-0.104,0.129-0.268,0.198-0.424,0.188c-0.164-0.011-0.314-0.101-0.396-0.24l-3.672-6.084
			l-2.929,7.649l2.812-3.232C11.159,12.082,11.297,12.02,11.441,12.02z"/>
	</g>
</g>
</svg>
