<?xml version="1.0" encoding="utf-8"?>
<!-- Generator: Adobe Illustrator 16.0.0, SVG Export Plug-In . SVG Version: 6.00 Build 0)  -->
<!DOCTYPE svg PUBLIC "-//W3C//DTD SVG 1.1//EN" "http://www.w3.org/Graphics/SVG/1.1/DTD/svg11.dtd">
<svg version="1.1" id="图层_1" xmlns="http://www.w3.org/2000/svg" xmlns:xlink="http://www.w3.org/1999/xlink" x="0px" y="0px"
	 width="26px" height="26px" viewBox="0 0 26 26" enable-background="new 0 0 26 26" xml:space="preserve">
<g>
	<g>
		<rect opacity="0" fill="#E60012" width="26" height="25.999"/>
		<g>
			<g>
				
					<linearGradient id="SVGID_1_" gradientUnits="userSpaceOnUse" x1="6948.459" y1="3017.0449" x2="6972.459" y2="3017.0449" gradientTransform="matrix(0 1 -1 0 3030.0449 -6947.459)">
					<stop  offset="0" style="stop-color:#6EFF00"/>
					<stop  offset="1" style="stop-color:#C1FF00"/>
				</linearGradient>
				<circle fill="url(#SVGID_1_)" cx="13" cy="13" r="12"/>
			</g>
			<path d="M24,13c0,6.065-4.936,11-11,11C6.934,24,2,19.065,2,13C2,6.934,6.934,2,13,2C19.064,2,24,6.934,24,13 M25,13
				c0-6.628-5.373-12-12-12C6.371,1,1,6.372,1,13c0,6.627,5.371,12,12,12C19.627,25,25,19.627,25,13L25,13z"/>
		</g>
	</g>
	<g>
		<g>
			<path fill="#262626" d="M20.5,18.5H5.501v-11H20.5V18.5z M6.5,17.5h13.002v-9H6.5V17.5z"/>
			<polygon fill="#262626" points="13,14.036 5.694,8.396 6.305,7.604 13,12.773 19.693,7.604 20.305,8.396 			"/>
		</g>
	</g>
</g>
</svg>
