<?xml version="1.0" encoding="utf-8"?>
<!-- Generator: Adobe Illustrator 16.0.0, SVG Export Plug-In . SVG Version: 6.00 Build 0)  -->
<!DOCTYPE svg PUBLIC "-//W3C//DTD SVG 1.1//EN" "http://www.w3.org/Graphics/SVG/1.1/DTD/svg11.dtd">
<svg version="1.1" id="图层_1" xmlns="http://www.w3.org/2000/svg" xmlns:xlink="http://www.w3.org/1999/xlink" x="0px" y="0px"
	 width="26px" height="26px" viewBox="0 0 26 26" enable-background="new 0 0 26 26" xml:space="preserve">
<g>
	<rect opacity="0" fill="#E60012" width="26" height="26.002"/>
	<g>
		<g>
			
				<linearGradient id="SVGID_1_" gradientUnits="userSpaceOnUse" x1="6948.459" y1="3017.0439" x2="6972.459" y2="3017.0439" gradientTransform="matrix(0 1 -1 0 3030.0449 -6947.459)">
				<stop  offset="0" style="stop-color:#6EFF00"/>
				<stop  offset="1" style="stop-color:#C1FF00"/>
			</linearGradient>
			<circle fill="url(#SVGID_1_)" cx="13" cy="13" r="12"/>
		</g>
		<path d="M24,13.001C24,19.064,19.066,24,13,24C6.934,24,2,19.064,2,13.001C2,6.935,6.934,2,13,2C19.066,2,24,6.935,24,13.001
			 M25.002,13.001C25.002,6.372,19.627,1,13,1C6.371,1,1,6.372,1,13.001c0,6.628,5.371,12,12.001,12
			C19.627,25.001,25.002,19.629,25.002,13.001L25.002,13.001z"/>
	</g>
</g>
</svg>
