<?xml version="1.0" encoding="utf-8"?>
<!-- Generator: Adobe Illustrator 16.0.0, SVG Export Plug-In . SVG Version: 6.00 Build 0)  -->
<!DOCTYPE svg PUBLIC "-//W3C//DTD SVG 1.1//EN" "http://www.w3.org/Graphics/SVG/1.1/DTD/svg11.dtd">
<svg version="1.1" id="图层_1" xmlns="http://www.w3.org/2000/svg" xmlns:xlink="http://www.w3.org/1999/xlink" x="0px" y="0px"
	 width="26px" height="26px" viewBox="0 0 26 26" enable-background="new 0 0 26 26" xml:space="preserve">
<g>
	<g>
		<rect opacity="0" fill="#E60012" width="26" height="26"/>
		<g>
			<g>
				
					<linearGradient id="SVGID_1_" gradientUnits="userSpaceOnUse" x1="6948.459" y1="3017.0439" x2="6972.4609" y2="3017.0439" gradientTransform="matrix(0 1 -1 0 3030.0449 -6947.459)">
					<stop  offset="0" style="stop-color:#6EFF00"/>
					<stop  offset="1" style="stop-color:#C1FF00"/>
				</linearGradient>
				<circle fill="url(#SVGID_1_)" cx="13" cy="13.001" r="12.001"/>
			</g>
			<path d="M24,13.001C24,19.066,19.066,24,13,24C6.934,24,2,19.066,2,13.001C2,6.935,6.934,2,13,2C19.066,2,24,6.935,24,13.001
				 M25.002,13.001C25.002,6.372,19.627,1,13,1C6.371,1,1,6.372,1,13.001c0,6.627,5.371,12,12.001,12
				C19.627,25.002,25.002,19.629,25.002,13.001L25.002,13.001z"/>
		</g>
	</g>
	<g>
		<path fill="#262626" d="M13,6.501c1.734,0,3.367,0.676,4.593,1.905c1.23,1.228,1.904,2.858,1.904,4.595
			c0,1.734-0.674,3.367-1.904,4.595C16.367,18.824,14.734,19.5,13,19.5c-1.737,0-3.369-0.676-4.596-1.904
			C7.176,16.367,6.5,14.734,6.5,13c0-1.736,0.675-3.367,1.904-4.595C9.631,7.177,11.263,6.501,13,6.501 M13,5.501
			c-1.921,0-3.839,0.732-5.304,2.197c-2.93,2.928-2.93,7.677,0,10.604C9.162,19.768,11.08,20.5,13,20.5
			c1.917,0,3.837-0.732,5.302-2.197c2.93-2.928,2.93-7.676,0-10.604C16.838,6.233,14.918,5.501,13,5.501L13,5.501z"/>
		<rect x="12.498" y="6.5" fill="#231815" width="1.001" height="1.072"/>
		<rect x="6.5" y="12.501" fill="#231815" width="1.069" height="0.997"/>
		<rect x="18.428" y="12.501" fill="#231815" width="1.07" height="0.997"/>
		
			<rect x="8.173" y="8.209" transform="matrix(0.7073 0.7069 -0.7069 0.7073 8.7054 -3.6074)" fill="#231815" width="1.072" height="1.001"/>
		
			<rect x="16.755" y="16.794" transform="matrix(0.7053 0.7089 -0.7089 0.7053 17.3554 -7.1615)" fill="#231815" width="1.072" height="0.997"/>
		
			<rect x="16.792" y="8.174" transform="matrix(0.7061 0.7081 -0.7081 0.7061 11.2484 -9.684)" fill="#231815" width="0.999" height="1.07"/>
		
			<rect x="8.208" y="16.758" transform="matrix(0.7066 0.7076 -0.7076 0.7066 14.7915 -1.0892)" fill="#231815" width="1.002" height="1.071"/>
		<rect x="12.498" y="9.25" fill="#231815" width="1.001" height="3.214"/>
		<path fill="#231815" d="M12.998,14.305c-0.719,0-1.302-0.586-1.302-1.304c0-0.719,0.583-1.304,1.302-1.304
			c0.721,0,1.303,0.585,1.303,1.304C14.301,13.719,13.719,14.305,12.998,14.305z M12.998,12.697c-0.166,0-0.302,0.137-0.302,0.304
			c0,0.166,0.136,0.303,0.302,0.303c0.168,0,0.306-0.137,0.306-0.303C13.303,12.833,13.166,12.697,12.998,12.697z"/>
	</g>
</g>
</svg>
