<?xml version="1.0" encoding="UTF-8" standalone="no"?>
<svg
   xmlns="http://www.w3.org/2000/svg"
   xmlns:svg="http://www.w3.org/2000/svg"
   xmlns:oryx="http://www.b3mn.org/oryx"
   xmlns:xlink="http://www.w3.org/1999/xlink"

   width="90"
   height="65"
   version="1.0">
  <defs></defs>
  <oryx:magnets>
  	<oryx:magnet oryx:cx="1" oryx:cy="15" oryx:anchors="left" />
  	<oryx:magnet oryx:cx="1" oryx:cy="30" oryx:anchors="left" />
  	<oryx:magnet oryx:cx="1" oryx:cy="45" oryx:anchors="left" />
  	
  	<oryx:magnet oryx:cx="25" oryx:cy="61" oryx:anchors="bottom" />
  	<oryx:magnet oryx:cx="45" oryx:cy="61" oryx:anchors="bottom" />
  	<oryx:magnet oryx:cx="65" oryx:cy="61" oryx:anchors="bottom" />
  	
  	<oryx:magnet oryx:cx="90" oryx:cy="15" oryx:anchors="right" />
  	<oryx:magnet oryx:cx="90" oryx:cy="30" oryx:anchors="right" />
  	<oryx:magnet oryx:cx="90" oryx:cy="45" oryx:anchors="right" />
  	
  	<oryx:magnet oryx:cx="25" oryx:cy="1" oryx:anchors="top" />
  	<oryx:magnet oryx:cx="45" oryx:cy="1" oryx:anchors="top" />
  	<oryx:magnet oryx:cx="65" oryx:cy="1" oryx:anchors="top" />
  	
  	<oryx:magnet oryx:cx="45" oryx:cy="30" oryx:default="yes" />
  </oryx:magnets>
  <g pointer-events="fill" oryx:minimumSize="80 50">
  	<defs>
		<radialGradient id="background" cx="10%" cy="10%" r="100%" fx="10%" fy="10%">
			<stop offset="0%" stop-color="#ffffff" stop-opacity="1"/>
			<stop id="fill_el" offset="100%" stop-color="#ffffcc" stop-opacity="1"/>
		</radialGradient>
	</defs>
	
	<rect id="text_frame" oryx:anchors="bottom top right left" x="1" y="1" width="88" height="58" rx="10" ry="10" stroke="none" stroke-width="0" fill="none" />
	<rect id="bg_frame" oryx:resize="vertical horizontal" x="0" y="0" width="90" height="60" rx="5" ry="5" stroke="#3A3A3A" stroke-width="1" fill="#F2F4FF" />
		<text 
			font-size="12" 
			id="text_name" 
			x="45" 
			y="30" 
			oryx:align="middle center"
			oryx:fittoelem="text_frame"
			stroke="black">
		</text>
	
	<g id="mailTask">
	<rect oryx:anchors="top left" x="1" opacity="0" fill="#22AC38" width="20" height="20"/>
	<g>
		<g>
			<rect oryx:anchors="top left" x="3.985" y="5.145" fill="#22AC38" width="14.03" height="9.71"/>
		</g>
		<polyline oryx:anchors="top left"  fill="#22AC38" stroke="#FFFFFF" stroke-linecap="round" stroke-linejoin="round" stroke-miterlimit="10" points="
			17.398,5.145 10.609,10.577 4.562,5.145 		"/>
	</g>
</g>
<g id="parallel">
	<path oryx:anchors="bottom" fill="none" stroke="#3A3A3A" d="M43 50 v8 M47 50 v8 M51 50 v8" stroke-width="2" />
</g>
<g id="sequential">
	<path oryx:anchors="bottom" fill="none" stroke="#3A3A3A" stroke-width="2" d="M43,48h10M43,52h10 M43,56h10"/>
</g>
<g id="compensation">
	<path oryx:anchors="bottom" fill="#262626" d="M58.925,57.48V48.52l-5.159,4.525L58.925,57.48z M58.225,55.956l-3.394-2.916l3.394-2.976V55.956,M59.107,53.045l5.158,4.436V48.52L59.107,53.045z M63.564,55.956l-3.391-2.916l3.391-2.976V55.956z"/>
</g>
  </g>
</svg>