<?xml version="1.0" encoding="UTF-8" standalone="no"?>
<svg
   xmlns="http://www.w3.org/2000/svg"
   xmlns:svg="http://www.w3.org/2000/svg"
   xmlns:oryx="http://www.b3mn.org/oryx"
   xmlns:xlink="http://www.w3.org/1999/xlink"

   width="90"
   height="65"
   version="1.0">
  <defs></defs>
  <oryx:magnets>
  	<oryx:magnet oryx:cx="1" oryx:cy="15" oryx:anchors="left" />
  	<oryx:magnet oryx:cx="1" oryx:cy="30" oryx:anchors="left" />
  	<oryx:magnet oryx:cx="1" oryx:cy="45" oryx:anchors="left" />
  	
  	<oryx:magnet oryx:cx="25" oryx:cy="61" oryx:anchors="bottom" />
  	<oryx:magnet oryx:cx="45" oryx:cy="61" oryx:anchors="bottom" />
  	<oryx:magnet oryx:cx="65" oryx:cy="61" oryx:anchors="bottom" />
  	
  	<oryx:magnet oryx:cx="90" oryx:cy="15" oryx:anchors="right" />
  	<oryx:magnet oryx:cx="90" oryx:cy="30" oryx:anchors="right" />
  	<oryx:magnet oryx:cx="90" oryx:cy="45" oryx:anchors="right" />
  	
  	<oryx:magnet oryx:cx="25" oryx:cy="1" oryx:anchors="top" />
  	<oryx:magnet oryx:cx="45" oryx:cy="1" oryx:anchors="top" />
  	<oryx:magnet oryx:cx="65" oryx:cy="1" oryx:anchors="top" />
  	
  	<oryx:magnet oryx:cx="45" oryx:cy="30" oryx:default="yes" />
  </oryx:magnets>
  <g pointer-events="fill" oryx:minimumSize="80 50">
  	<defs>
		<radialGradient id="background" cx="10%" cy="10%" r="100%" fx="10%" fy="10%">
			<stop offset="0%" stop-color="#ffffff" stop-opacity="1"/>
			<stop id="fill_el" offset="100%" stop-color="#ffffcc" stop-opacity="1"/>
		</radialGradient>
	</defs>
	
	<rect id="text_frame" oryx:anchors="bottom top right left" x="1" y="1" width="88" height="58" rx="10" ry="10" stroke="none" stroke-width="0" fill="none" />
	<rect id="bg_frame" oryx:resize="vertical horizontal" x="0" y="0" width="90" height="60" rx="5" ry="5" stroke="#3A3A3A" stroke-width="1" fill="#F2F4FF" />
		<text 
			font-size="12" 
			id="text_name" 
			x="45" 
			y="30" 
			oryx:align="middle center"
			oryx:fittoelem="text_frame"
			stroke="black">
		</text>
	
	<g id="manualTask">
	<rect x="2" opacity="0" fill="#956134" width="20" height="20"/>
	<polygon  oryx:anchors="top left"  fill="none" stroke="#956134" stroke-miterlimit="10" points="13.275,4.884 6.518,4.884 3.429,7.239 3.429,14.189 
		4.896,15.116 16.75,15.116 17.291,14.923 17.831,14.537 18.024,13.649 12.928,13.649 17.831,13.842 18.564,13.649 19.105,13.108 
		19.105,11.988 18.951,11.641 13.275,11.641 18.951,11.641 19.49,11.255 19.684,10.907 19.839,10.561 19.839,9.633 19.49,9.441 
		12.193,9.441 12.193,9.247 19.49,9.247 20.032,8.899 20.378,8.707 20.572,8.359 20.572,7.626 20.224,7.239 7.985,7.239 
		12.928,7.239 13.469,6.699 13.66,6.159 13.66,5.425 13.469,5.271 	"/>
</g>
<g id="parallel">
	<path oryx:anchors="bottom" fill="none" stroke="#3A3A3A" d="M43 50 v8 M47 50 v8 M51 50 v8" stroke-width="2" />
</g>
<g id="sequential">
	<path oryx:anchors="bottom" fill="none" stroke="#3A3A3A" stroke-width="2" d="M43,48h10M43,52h10 M43,56h10"/>
</g>
<g id="compensation">
	<path oryx:anchors="bottom" fill="#262626" d="M58.925,57.48V48.52l-5.159,4.525L58.925,57.48z M58.225,55.956l-3.394-2.916l3.394-2.976V55.956,M59.107,53.045l5.158,4.436V48.52L59.107,53.045z M63.564,55.956l-3.391-2.916l3.391-2.976V55.956z"/>
</g>
  </g>
</svg>