<?xml version="1.0" encoding="UTF-8" standalone="no"?>
<svg
   xmlns="http://www.w3.org/2000/svg"
   xmlns:svg="http://www.w3.org/2000/svg"
   xmlns:oryx="http://www.b3mn.org/oryx"
   xmlns:xlink="http://www.w3.org/1999/xlink"

   width="90"
   height="65"
   version="1.0">
  <defs></defs>
  <oryx:magnets>
  	<oryx:magnet oryx:cx="1" oryx:cy="15" oryx:anchors="left" />
  	<oryx:magnet oryx:cx="1" oryx:cy="30" oryx:anchors="left" />
  	<oryx:magnet oryx:cx="1" oryx:cy="45" oryx:anchors="left" />
  	
  	<oryx:magnet oryx:cx="25" oryx:cy="61" oryx:anchors="bottom" />
  	<oryx:magnet oryx:cx="45" oryx:cy="61" oryx:anchors="bottom" />
  	<oryx:magnet oryx:cx="65" oryx:cy="61" oryx:anchors="bottom" />
  	
  	<oryx:magnet oryx:cx="90" oryx:cy="15" oryx:anchors="right" />
  	<oryx:magnet oryx:cx="90" oryx:cy="30" oryx:anchors="right" />
  	<oryx:magnet oryx:cx="90" oryx:cy="45" oryx:anchors="right" />
  	
  	<oryx:magnet oryx:cx="25" oryx:cy="1" oryx:anchors="top" />
  	<oryx:magnet oryx:cx="45" oryx:cy="1" oryx:anchors="top" />
  	<oryx:magnet oryx:cx="65" oryx:cy="1" oryx:anchors="top" />
  	
  	<oryx:magnet oryx:cx="45" oryx:cy="30" oryx:default="yes" />
  </oryx:magnets>
  <g pointer-events="fill" oryx:minimumSize="80 50">
  	<defs>
		<radialGradient id="background" cx="10%" cy="10%" r="100%" fx="10%" fy="10%">
			<stop offset="0%" stop-color="#ffffff" stop-opacity="1"/>
			<stop id="fill_el" offset="100%" stop-color="#ffffcc" stop-opacity="1"/>
		</radialGradient>
	</defs>
	
	<rect id="text_frame" oryx:anchors="bottom top right left" x="1" y="1" width="88" height="58" rx="10" ry="10" stroke="none" stroke-width="0" fill="none" />
	<rect id="bg_frame" oryx:resize="vertical horizontal" x="0" y="0" width="90" height="60" rx="5" ry="5" stroke="#3A3A3A" stroke-width="1" fill="#F2F4FF" />
		<text 
			font-size="12" 
			id="text_name" 
			x="45" 
			y="30" 
			oryx:align="middle center"
			oryx:fittoelem="text_frame"
			stroke="black">
		</text>
	
	<g id="scriptTask">
	<rect oryx:anchors="top left" opacity="0" fill="#00A0E9" width="20" height="20"/>
	<g>
		<g>
			<path oryx:anchors="top left"  fill="#00A0E9" d="M12.191,4.973l-0.104,0.146l-0.05,0.07L12,5.266l-0.576,1.193l-0.099,0.206v0.229v1.357v0.328
				l0.195,0.265l0.525,0.713l0.732,1.463l0.36,0.828l0.122,0.58v0.969l-0.515,0.829l-0.306,0.275l-0.02,0.018L12.4,14.538
				l-0.301,0.3l-0.284,0.19H6.687l0.253-0.373l0.093-0.138l0.044-0.161l0.371-1.357l0.035-0.129v-0.134v-0.618v-0.12l-0.028-0.117
				L7.084,10.36l-0.036-0.147l-0.078-0.13L6.579,9.433L6.125,8.736V7.18l0.445-0.711l0.508-0.69l0.47-0.469l0.457-0.336H12.191
				 M15.452,3.973H7.676L6.894,4.548L6.317,5.125L5.742,5.906L5.125,6.894v2.14l0.617,0.946l0.371,0.617l0.371,1.521v0.618
				l-0.371,1.357l-0.781,1.152l-0.782,0.783h7.57l0.618-0.413l0.37-0.37l0.412-0.37l0.74-1.192v-1.358l-0.165-0.781l-0.411-0.946
				L12.9,9.033l-0.576-0.782V6.894L12.9,5.7l0.412-0.576l0.946-0.576L15.452,3.973L15.452,3.973z"/>
		</g>
		
			<line oryx:anchors="top left" fill="none" stroke="#00A0E9" stroke-linejoin="round" stroke-miterlimit="10" x1="5.772" y1="5.906" x2="12.493" y2="5.906"/>
		
			<line oryx:anchors="top left" fill="none" stroke="#00A0E9" stroke-linejoin="round" stroke-miterlimit="10" x1="5.581" y1="8.457" x2="12.301" y2="8.457"/>
		
			<line oryx:anchors="top left" fill="none" stroke="#00A0E9" stroke-linejoin="round" stroke-miterlimit="10" x1="6.501" y1="11.173" x2="13.568" y2="11.173"/>
		
			<line oryx:anchors="top left" fill="none" stroke="#00A0E9" stroke-linejoin="round" stroke-miterlimit="10" x1="6.31" y1="13.683" x2="13.76" y2="13.683"/>
	</g>
</g>
<g id="parallel">
	<path oryx:anchors="bottom" fill="none" stroke="#3A3A3A" d="M43 50 v8 M47 50 v8 M51 50 v8" stroke-width="2" />
</g>
<g id="sequential">
	<path oryx:anchors="bottom" fill="none" stroke="#3A3A3A" stroke-width="2" d="M43,48h10M43,52h10 M43,56h10"/>
</g>
<g id="compensation">
	<path oryx:anchors="bottom" fill="#262626" d="M58.925,57.48V48.52l-5.159,4.525L58.925,57.48z M58.225,55.956l-3.394-2.916l3.394-2.976V55.956,M59.107,53.045l5.158,4.436V48.52L59.107,53.045z M63.564,55.956l-3.391-2.916l3.391-2.976V55.956z"/>
</g>
  </g>
</svg>