<?xml version="1.0" encoding="UTF-8" standalone="no"?>
<svg
   xmlns="http://www.w3.org/2000/svg"
   xmlns:svg="http://www.w3.org/2000/svg"
   xmlns:oryx="http://www.b3mn.org/oryx"
   xmlns:xlink="http://www.w3.org/1999/xlink"

   width="90"
   height="65"
   version="1.0">
  <defs></defs>
  <oryx:magnets>
  	<oryx:magnet oryx:cx="1" oryx:cy="15" oryx:anchors="left" />
  	<oryx:magnet oryx:cx="1" oryx:cy="30" oryx:anchors="left" />
  	<oryx:magnet oryx:cx="1" oryx:cy="45" oryx:anchors="left" />
  	
  	<oryx:magnet oryx:cx="25" oryx:cy="61" oryx:anchors="bottom" />
  	<oryx:magnet oryx:cx="45" oryx:cy="61" oryx:anchors="bottom" />
  	<oryx:magnet oryx:cx="65" oryx:cy="61" oryx:anchors="bottom" />
  	
  	<oryx:magnet oryx:cx="90" oryx:cy="15" oryx:anchors="right" />
  	<oryx:magnet oryx:cx="90" oryx:cy="30" oryx:anchors="right" />
  	<oryx:magnet oryx:cx="90" oryx:cy="45" oryx:anchors="right" />
  	
  	<oryx:magnet oryx:cx="25" oryx:cy="1" oryx:anchors="top" />
  	<oryx:magnet oryx:cx="45" oryx:cy="1" oryx:anchors="top" />
  	<oryx:magnet oryx:cx="65" oryx:cy="1" oryx:anchors="top" />
  	
  	<oryx:magnet oryx:cx="45" oryx:cy="30" oryx:default="yes" />
  </oryx:magnets>
  <g pointer-events="fill" oryx:minimumSize="80 50">
  	<defs>
		<radialGradient id="background" cx="10%" cy="10%" r="100%" fx="10%" fy="10%">
			<stop offset="0%" stop-color="#ffffff" stop-opacity="1"/>
			<stop id="fill_el" offset="100%" stop-color="#ffffcc" stop-opacity="1"/>
		</radialGradient>
	</defs>
	
	<rect id="text_frame" oryx:anchors="bottom top right left" x="1" y="1" width="88" height="58" rx="10" ry="10" stroke="none" stroke-width="0" fill="none" />
	<rect id="bg_frame" oryx:resize="vertical horizontal" x="0" y="0" width="90" height="60" rx="5" ry="5" stroke="#3A3A3A" stroke-width="1" fill="#F2F4FF" />
		<text 
			font-size="12" 
			id="text_name" 
			x="45" 
			y="30" 
			oryx:align="middle center"
			oryx:fittoelem="text_frame"
			stroke="black">
		</text>
	
	<g id="serviceTask">
	<rect fill="#00A0E9" fill-opacity="0" width="20" height="20"/>
	<g>
		<polygon oryx:anchors="top left" fill="none" stroke="#00A0E9" stroke-miterlimit="10" points="9.033,5.804 9.033,4.281 11.007,4.281 11.007,5.804 
			12.366,6.421 13.518,5.228 14.876,6.791 13.724,7.572 14.093,8.931 16.027,8.931 16.027,11.07 14.093,11.07 13.518,12.058 
			15.082,13.208 13.518,14.772 12.366,13.579 11.007,14.196 11.007,15.719 9.033,15.719 9.033,14.196 7.676,13.415 6.317,14.938 
			4.96,13.991 6.317,12.427 5.948,11.07 3.973,11.07 3.973,8.931 5.742,8.931 6.317,7.942 4.754,6.791 6.112,5.228 7.676,6.585 		
			"/>
		<path oryx:anchors="top left" fill="none" stroke="#00A0E9" stroke-miterlimit="10" d="M12.16,9.918c0-1.194-0.946-2.14-2.139-2.14
			c-1.194,0-2.14,0.945-2.14,2.14c0,1.152,0.946,2.14,2.14,2.14C11.213,12.058,12.16,11.07,12.16,9.918z"/>
	</g>
</g>
<g id="parallel">
	<path oryx:anchors="bottom" fill="none" stroke="#3A3A3A" d="M43 50 v8 M47 50 v8 M51 50 v8" stroke-width="2" />
</g>
<g id="sequential">
	<path oryx:anchors="bottom" fill="none" stroke="#3A3A3A" stroke-width="2" d="M43,48h10M43,52h10 M43,56h10"/>
</g>
<g id="compensation">
	<path oryx:anchors="bottom" fill="#262626" d="M58.925,57.48V48.52l-5.159,4.525L58.925,57.48z M58.225,55.956l-3.394-2.916l3.394-2.976V55.956,M59.107,53.045l5.158,4.436V48.52L59.107,53.045z M63.564,55.956l-3.391-2.916l3.391-2.976V55.956z"/>
</g>
  </g>
</svg>