<?xml version="1.0" encoding="utf-8"?>
<!-- Generator: Adobe Illustrator 16.0.0, SVG Export Plug-In . SVG Version: 6.00 Build 0)  -->
<!DOCTYPE svg PUBLIC "-//W3C//DTD SVG 1.1//EN" "http://www.w3.org/Graphics/SVG/1.1/DTD/svg11.dtd">
<svg version="1.1" id="图层_1" xmlns="http://www.w3.org/2000/svg" xmlns:xlink="http://www.w3.org/1999/xlink" x="0px" y="0px"
	 width="595.279px" height="841.89px" viewBox="0 0 595.279 841.89" enable-background="new 0 0 595.279 841.89"
	 xml:space="preserve">
<g>
	<g>
		<rect x="282.428" y="406.249" opacity="0" fill="#E60012" width="32" height="32"/>
		<g>
			<g>
				<linearGradient id="SVGID_1_" gradientUnits="userSpaceOnUse" x1="298.4285" y1="409.2759" x2="298.4285" y2="437.6086">
					<stop  offset="0" style="stop-color:#FF9807"/>
					<stop  offset="1" style="stop-color:#FFCB07"/>
				</linearGradient>
				<circle fill="url(#SVGID_1_)" cx="298.428" cy="422.249" r="14.768"/>
				<path fill="#404040" d="M298.428,408.711c7.464,0,13.537,6.071,13.537,13.539c0,7.463-6.073,13.537-13.537,13.537
					c-7.465,0-13.538-6.074-13.538-13.537C284.89,414.782,290.964,408.711,298.428,408.711 M298.428,407.481
					c-8.156,0-14.769,6.61-14.769,14.769c0,8.155,6.612,14.768,14.769,14.768c8.157,0,14.768-6.612,14.768-14.768
					C313.196,414.091,306.586,407.481,298.428,407.481L298.428,407.481z"/>
			</g>
			<path d="M298.428,408.711c7.463,0,13.537,6.071,13.537,13.539c0,7.463-6.074,13.537-13.537,13.537
				c-7.467,0-13.538-6.074-13.538-13.537C284.89,414.782,290.962,408.711,298.428,408.711 M298.428,407.481
				c-8.158,0-14.769,6.61-14.769,14.769c0,8.155,6.61,14.768,14.769,14.768c8.155,0,14.768-6.612,14.768-14.768
				C313.196,414.091,306.584,407.481,298.428,407.481L298.428,407.481z"/>
			<path d="M298.428,411.417c5.971,0,10.828,4.86,10.828,10.833c0,5.971-4.857,10.828-10.828,10.828
				c-5.972,0-10.832-4.857-10.832-10.828C287.596,416.277,292.457,411.417,298.428,411.417 M298.428,410.187
				c-6.652,0-12.062,5.41-12.062,12.062c0,6.649,5.41,12.06,12.062,12.06c6.648,0,12.06-5.41,12.06-12.06
				C310.488,415.597,305.077,410.187,298.428,410.187L298.428,410.187z"/>
		</g>
	</g>
	<g>
		<polyline fill-rule="evenodd" clip-rule="evenodd" fill="#262626" points="288.505,422.316 296.366,429.076 296.366,415.421 
			288.505,422.316 		"/>
		<polyline fill-rule="evenodd" clip-rule="evenodd" fill="#262626" points="296.642,422.316 304.505,429.076 304.505,415.421 
			296.642,422.316 		"/>
	</g>
</g>
</svg>
