<?xml version="1.0" encoding="utf-8"?>
<!-- Generator: Adobe Illustrator 16.0.0, SVG Export Plug-In . SVG Version: 6.00 Build 0)  -->
<!DOCTYPE svg PUBLIC "-//W3C//DTD SVG 1.1//EN" "http://www.w3.org/Graphics/SVG/1.1/DTD/svg11.dtd">
<svg version="1.1" id="图层_1" xmlns="http://www.w3.org/2000/svg" xmlns:xlink="http://www.w3.org/1999/xlink" x="0px" y="0px"
	 width="26px" height="26px" viewBox="0 0 26 26" enable-background="new 0 0 26 26" xml:space="preserve">
<g>
	<g>
		<rect fill="#E60012" fill-opacity="0" width="26" height="26"/>
		<g>
			<g>
				
					<linearGradient id="SVGID_1_" gradientUnits="userSpaceOnUse" x1="-9.4995" y1="899.4302" x2="-9.4995" y2="876.409" gradientTransform="matrix(1 0 0 -1 22.5 901.8896)">
					<stop  offset="0" style="stop-color:#FF9807"/>
					<stop  offset="1" style="stop-color:#FFCB07"/>
				</linearGradient>
				<circle fill="url(#SVGID_1_)" cx="13" cy="13" r="11.999"/>
				<path fill="#404040" d="M13,2c6.064,0,10.999,4.933,10.999,11C23.999,19.064,19.064,24,13,24C6.935,24,2,19.064,2,13
					C2,6.933,6.935,2,13,2 M13,1.001c-6.627,0-12,5.371-12,12C1,19.627,6.373,25,13,25S25,19.627,25,13
					C25,6.372,19.628,1.001,13,1.001L13,1.001z"/>
			</g>
			<path d="M13,2c6.064,0,10.999,4.933,10.999,11C23.999,19.064,19.064,24,13,24C6.933,24,2,19.064,2,13C2,6.933,6.934,2,13,2
				 M13,1.001c-6.628,0-12,5.371-12,12C1,19.627,6.371,25,13,25C19.626,25,25,19.627,25,13C25,6.372,19.626,1.001,13,1.001L13,1.001
				z"/>
			<path d="M13,4.199c4.852,0,8.797,3.949,8.797,8.801c0,4.852-3.945,8.798-8.797,8.798S4.199,17.852,4.199,13
				C4.199,8.148,8.148,4.199,13,4.199 M13,3.2C7.595,3.2,3.2,7.596,3.2,13c0,5.402,4.396,9.798,9.8,9.798
				c5.402,0,9.799-4.395,9.799-9.798C22.799,7.596,18.403,3.2,13,3.2L13,3.2z"/>
		</g>
	</g>
	<g>
		<polyline fill="#262626" points="4.938,13.055 11.325,18.547 11.325,7.452 4.938,13.055 		"/>
		<polyline fill="#262626" points="11.549,13.055 17.938,18.547 17.938,7.452 11.549,13.055 		"/>
	</g>
</g>
</svg>
