<?xml version="1.0" encoding="utf-8"?>
<!-- Generator: Adobe Illustrator 16.0.0, SVG Export Plug-In . SVG Version: 6.00 Build 0)  -->
<!DOCTYPE svg PUBLIC "-//W3C//DTD SVG 1.1//EN" "http://www.w3.org/Graphics/SVG/1.1/DTD/svg11.dtd">
<svg version="1.1" id="图层_1" xmlns="http://www.w3.org/2000/svg" xmlns:xlink="http://www.w3.org/1999/xlink" x="0px" y="0px"
	 width="26px" height="26px" viewBox="0 0 26 26" enable-background="new 0 0 26 26" xml:space="preserve">
<g>
	<g>
		<rect opacity="0" fill="#E60012" width="26" height="25.998"/>
		<g>
			<g>
				<linearGradient id="SVGID_1_" gradientUnits="userSpaceOnUse" x1="12.9995" y1="2.458" x2="12.9995" y2="25.4797">
					<stop  offset="0" style="stop-color:#FF9807"/>
					<stop  offset="1" style="stop-color:#FFCB07"/>
				</linearGradient>
				<circle fill="url(#SVGID_1_)" cx="13" cy="12.999" r="12"/>
				<path fill="#404040" d="M13,1.999c6.065,0,11,4.934,11,11.001c0,6.063-4.935,10.998-11,10.998C6.935,23.998,2,19.063,2,13
					C2,6.933,6.935,1.999,13,1.999 M13,1C6.374,1,1.001,6.37,1.001,13c0,6.625,5.373,11.999,11.999,11.999
					c6.628,0,11.999-5.374,11.999-11.999C24.999,6.37,19.628,1,13,1L13,1z"/>
			</g>
			<path d="M13,1.999c6.063,0,11,4.934,11,11.001c0,6.063-4.937,10.998-11,10.998C6.933,23.998,2,19.063,2,13
				C2,6.933,6.933,1.999,13,1.999 M13,1C6.372,1,1.001,6.372,1.001,13c0,6.627,5.371,11.999,11.999,11.999
				c6.627,0,11.999-5.372,11.999-11.999C24.999,6.372,19.627,1,13,1L13,1z"/>
			<path d="M13,4.199c4.853,0,8.798,3.947,8.798,8.801c0,4.851-3.945,8.798-8.798,8.798c-4.852,0-8.801-3.947-8.801-8.798
				C4.199,8.146,8.148,4.199,13,4.199 M13,3.2c-5.404,0-9.8,4.396-9.8,9.8c0,5.401,4.396,9.799,9.8,9.799
				c5.401,0,9.799-4.397,9.799-9.799C22.799,7.596,18.401,3.2,13,3.2L13,3.2z"/>
		</g>
	</g>
	<polygon fill="#262626" points="6.5,17.811 19.5,17.811 13,6.187 	"/>
</g>
</svg>
