<?xml version="1.0" encoding="utf-8"?>
<!-- Generator: Adobe Illustrator 16.0.0, SVG Export Plug-In . SVG Version: 6.00 Build 0)  -->
<!DOCTYPE svg PUBLIC "-//W3C//DTD SVG 1.1//EN" "http://www.w3.org/Graphics/SVG/1.1/DTD/svg11.dtd">
<svg xmlns="http://www.w3.org/2000/svg"
   xmlns:svg="http://www.w3.org/2000/svg"
   xmlns:oryx="http://www.b3mn.org/oryx"
   xmlns:xlink="http://www.w3.org/1999/xlink"

   width="26"
   height="26"
   version="1.0">
	 	 <oryx:magnets>
  	<oryx:magnet oryx:cx="1" oryx:cy="0" oryx:anchors="left" />
  	<oryx:magnet oryx:cx="1" oryx:cy="13" oryx:anchors="left" />
  	<oryx:magnet oryx:cx="1" oryx:cy="26" oryx:anchors="left" />
  	
  	<oryx:magnet oryx:cx="0" oryx:cy="26" oryx:anchors="bottom" />
  	<oryx:magnet oryx:cx="13" oryx:cy="26" oryx:anchors="bottom" />
  	<oryx:magnet oryx:cx="26" oryx:cy="26" oryx:anchors="bottom" />
  	
  	<oryx:magnet oryx:cx="26" oryx:cy="0" oryx:anchors="right" />
  	<oryx:magnet oryx:cx="26" oryx:cy="13" oryx:anchors="right" />
  	<oryx:magnet oryx:cx="26" oryx:cy="16" oryx:anchors="right" />
  	
  	<oryx:magnet oryx:cx="0" oryx:cy="26" oryx:anchors="top" />
  	<oryx:magnet oryx:cx="13" oryx:cy="26" oryx:anchors="top" />
  	<oryx:magnet oryx:cx="26" oryx:cy="26" oryx:anchors="top" />
  	
  	<oryx:magnet oryx:cx="13" oryx:cy="13" oryx:default="yes" />
  </oryx:magnets>
<g>
	<rect id="text_frame"  x="1" y="1" width="26" height="26" stroke="none" stroke-width="0" fill="none" />
	<rect id="bg_frame"  opacity="0" width="26" height="26" />
		<text 
			font-size="12" 
			id="text_name" 
			x="13" 
			y="28" 
			oryx:align="top center"
			oryx:fittoelem="text_frame"
			stroke="black">
		</text>
		<linearGradient id="SVGID_1_" gradientUnits="userSpaceOnUse" x1="12.9995" y1="2.458" x2="12.9995" y2="25.4797">
				<stop  offset="0" style="stop-color:#FFFFFF"/>
				<stop  offset="1" style="stop-color:#00E1FF"/>
			</linearGradient>
	<polygon fill="url(#SVGID_1_)" stroke="#404040" stroke-miterlimit="10" points="1.625,13 13.001,1.625 24.376,13 13,24.375 	"/>
	<g>
		<g>
			<path fill-rule="evenodd" clip-rule="evenodd" fill="#404040" d="M13,16.75c-2.068,0-3.749-1.68-3.749-3.75
				c0-2.068,1.681-3.75,3.749-3.75c2.069,0,3.751,1.682,3.751,3.75C16.751,15.07,15.069,16.75,13,16.75z M13,8c-2.762,0-5,2.238-5,5
				c0,2.762,2.238,5,5,5c2.763,0,5-2.238,5-5C18,10.238,15.763,8,13,8z"/>
		</g>
	</g>
</g>
</svg>