<?xml version="1.0" encoding="utf-8"?>
<!-- Generator: Adobe Illustrator 16.0.0, SVG Export Plug-In . SVG Version: 6.00 Build 0)  -->
<!DOCTYPE svg PUBLIC "-//W3C//DTD SVG 1.1//EN" "http://www.w3.org/Graphics/SVG/1.1/DTD/svg11.dtd">
<svg version="1.1" id="图层_1" xmlns="http://www.w3.org/2000/svg" xmlns:xlink="http://www.w3.org/1999/xlink" x="0px" y="0px"
	 width="26px" height="26px" viewBox="0 0 26 26" enable-background="new 0 0 26 26" xml:space="preserve">
<g>
<g>
	<rect fill="#E60012" fill-opacity="0" width="26" height="26"/>
	<g>
		<g>
			
				<linearGradient id="SVGID_1_" gradientUnits="userSpaceOnUse" x1="-9.4995" y1="899.4321" x2="-9.4995" y2="876.4098" gradientTransform="matrix(1 0 0 -1 22.5 901.8896)">
				<stop  offset="0" style="stop-color:#FF9807"/>
				<stop  offset="1" style="stop-color:#FFCB07"/>
			</linearGradient>
			<circle fill="url(#SVGID_1_)" cx="13" cy="13" r="12"/>
			<path fill="#404040" d="M13,2c6.065,0,11,4.933,11,11c0,6.063-4.935,10.998-11,10.998C6.935,23.998,2,19.063,2,13
				C2,6.933,6.935,2,13,2 M13,1.001C6.373,1.001,1.001,6.372,1.001,13c0,6.626,5.372,12.001,11.999,12.001
				c6.627,0,11.999-5.374,11.999-12.001C25,6.372,19.627,1.001,13,1.001L13,1.001z"/>
		</g>
		<path d="M13,2c6.063,0,11,4.933,11,11c0,6.063-4.937,10.998-11,10.998C6.933,23.998,2,19.063,2,13C2,6.933,6.934,2,13,2 M13,1.001
			C6.372,1.001,1.001,6.372,1.001,13c0,6.626,5.371,12.001,11.999,12.001c6.627,0,11.999-5.374,11.999-12.001
			C25,6.372,19.627,1.001,13,1.001L13,1.001z"/>
		<path d="M13,4.199c4.852,0,8.797,3.949,8.797,8.801c0,4.854-3.944,8.798-8.797,8.798c-4.852,0-8.801-3.943-8.801-8.798
			C4.199,8.148,8.149,4.199,13,4.199 M13,3.2c-5.405,0-9.8,4.396-9.8,9.8c0,5.402,4.396,9.8,9.8,9.8c5.403,0,9.798-4.397,9.798-9.8
			C22.799,7.596,18.403,3.2,13,3.2L13,3.2z"/>
	</g>
</g>
<g>
	<g>
		<path fill="#262626" d="M10.59,9.409v7.208l-4.15-3.568L10.59,9.409 M11.447,7.516l-6.313,5.54l6.313,5.429V7.516L11.447,7.516z"
			/>
		<path fill="#262626" d="M17.128,9.409v7.209l-4.151-3.569L17.128,9.409 M17.985,7.516l-6.315,5.54l6.315,5.429V7.516L17.985,7.516
			z"/>
	</g>
</g>
</g>
</svg>
