<?xml version="1.0" encoding="utf-8"?>
<!-- Generator: Adobe Illustrator 16.0.0, SVG Export Plug-In . SVG Version: 6.00 Build 0)  -->
<!DOCTYPE svg PUBLIC "-//W3C//DTD SVG 1.1//EN" "http://www.w3.org/Graphics/SVG/1.1/DTD/svg11.dtd">
<svg version="1.1" id="图层_1" xmlns="http://www.w3.org/2000/svg" xmlns:xlink="http://www.w3.org/1999/xlink" x="0px" y="0px"
	 width="26px" height="26px" viewBox="0 0 26 26" enable-background="new 0 0 26 26" xml:space="preserve">
<g>
	<g>
		<rect fill="#E60012" fill-opacity="0" width="26" height="26"/>
		<g>
			<g>
				
					<linearGradient id="SVGID_1_" gradientUnits="userSpaceOnUse" x1="-9.4995" y1="899.4321" x2="-9.4995" y2="876.4092" gradientTransform="matrix(1 0 0 -1 22.5 901.8896)">
					<stop  offset="0" style="stop-color:#FF9807"/>
					<stop  offset="1" style="stop-color:#FFCB07"/>
				</linearGradient>
				<circle fill="url(#SVGID_1_)" cx="13" cy="13" r="12"/>
			</g>
			<path d="M13,2c6.063,0,11,4.934,11,11c0,6.065-4.937,11-11,11C6.934,24,2,19.065,2,13C2,6.934,6.934,2,13,2 M13,1
				C6.371,1,1,6.372,1,13s5.371,12,12,12c6.627,0,12-5.372,12-12S19.627,1,13,1L13,1z"/>
			<path d="M13,4.2c4.852,0,8.798,3.948,8.798,8.8c0,4.853-3.945,8.8-8.798,8.8S4.199,17.853,4.199,13C4.199,8.148,8.148,4.2,13,4.2
				 M13,3.2c-5.404,0-9.8,4.396-9.8,9.8c0,5.404,4.396,9.8,9.8,9.8c5.402,0,9.799-4.396,9.799-9.8C22.799,7.596,18.402,3.2,13,3.2
				L13,3.2z"/>
		</g>
	</g>
	<g>
		<g>
			<path fill="#262626" d="M19.5,17.767H6.501V8.234H19.5V17.767z M7.368,16.9h11.267V9.1H7.368V16.9z"/>
			<polygon fill="#262626" points="13,13.898 6.668,9.009 7.198,8.323 13,12.804 18.8,8.323 19.332,9.009 			"/>
		</g>
	</g>
</g>
</svg>
