<?xml version="1.0" encoding="utf-8"?>
<!-- Generator: Adobe Illustrator 16.0.0, SVG Export Plug-In . SVG Version: 6.00 Build 0)  -->
<!DOCTYPE svg PUBLIC "-//W3C//DTD SVG 1.1//EN" "http://www.w3.org/Graphics/SVG/1.1/DTD/svg11.dtd">
<svg version="1.1" id="图层_1" xmlns="http://www.w3.org/2000/svg" xmlns:xlink="http://www.w3.org/1999/xlink" x="0px" y="0px"
	 width="26px" height="26px" viewBox="0 0 26 26" enable-background="new 0 0 26 26" xml:space="preserve">
<g>
	<g>
		<rect fill="#E60012" fill-opacity="0" width="26" height="26"/>
		<g>
			<g>
				
					<linearGradient id="SVGID_1_" gradientUnits="userSpaceOnUse" x1="-9.499" y1="899.4302" x2="-9.499" y2="876.4098" gradientTransform="matrix(1 0 0 -1 22.5 901.8896)">
					<stop  offset="0" style="stop-color:#FF9807"/>
					<stop  offset="1" style="stop-color:#FFCB07"/>
				</linearGradient>
				<circle fill="url(#SVGID_1_)" cx="13" cy="13.001" r="12"/>
			</g>
			<path d="M13,2c6.063,0,11,4.934,11,11s-4.937,11-11,11C6.934,24,2,19.066,2,13C2,6.935,6.934,2,13,2 M13,1C6.372,1,1,6.373,1,13
				c0,6.628,5.371,12,12,12c6.627,0,12-5.372,12-12C25,6.373,19.627,1,13,1L13,1z"/>
			<path d="M13,4.201c4.853,0,8.798,3.948,8.798,8.8s-3.945,8.8-8.798,8.8c-4.852,0-8.8-3.948-8.8-8.8S8.148,4.201,13,4.201 M13,3.2
				c-5.404,0-9.8,4.396-9.8,9.8c0,5.404,4.396,9.8,9.8,9.8c5.402,0,9.799-4.396,9.799-9.8C22.799,7.596,18.402,3.2,13,3.2L13,3.2z"
				/>
		</g>
	</g>
	<g>
		<g>
			<g>
				<path fill="#262626" d="M12.998,6.313c1.787,0,3.468,0.696,4.729,1.96c1.265,1.263,1.96,2.941,1.96,4.727
					c0,1.786-0.695,3.465-1.96,4.728c-1.264,1.263-2.942,1.959-4.729,1.959c-1.783,0-3.463-0.695-4.726-1.959
					C7.009,16.465,6.312,14.786,6.312,13c0-1.786,0.695-3.464,1.959-4.727C9.535,7.01,11.213,6.313,12.998,6.313 M12.998,5.5
					c-1.917,0-3.836,0.732-5.301,2.197c-2.93,2.928-2.93,7.676,0,10.605c1.464,1.465,3.384,2.197,5.301,2.197
					c1.921,0,3.841-0.732,5.304-2.197c2.93-2.928,2.93-7.677,0-10.605C16.837,6.234,14.919,5.5,12.998,5.5L12.998,5.5z"/>
			</g>
		</g>
		<line fill="none" stroke="#231815" stroke-miterlimit="10" x1="12.998" y1="7.573" x2="12.998" y2="6.5"/>
		<line fill="none" stroke="#231815" stroke-miterlimit="10" x1="6.5" y1="13" x2="7.571" y2="13"/>
		<line fill="none" stroke="#231815" stroke-miterlimit="10" x1="18.428" y1="13" x2="19.5" y2="13"/>
		<line fill="none" stroke="#231815" stroke-miterlimit="10" x1="8.331" y1="8.331" x2="9.088" y2="9.088"/>
		<line fill="none" stroke="#231815" stroke-miterlimit="10" x1="16.912" y1="16.912" x2="17.67" y2="17.669"/>
		<line fill="none" stroke="#231815" stroke-miterlimit="10" x1="17.67" y1="8.331" x2="16.912" y2="9.088"/>
		<line fill="none" stroke="#231815" stroke-miterlimit="10" x1="9.088" y1="16.912" x2="8.331" y2="17.669"/>
		<line fill="none" stroke="#231815" stroke-miterlimit="10" x1="12.998" y1="9.25" x2="12.998" y2="12.465"/>
		<circle fill="none" stroke="#231815" stroke-miterlimit="10" cx="12.998" cy="13" r="0.803"/>
	</g>
</g>
</svg>
